<?xml version="1.0" standalone="no"?>
<!DOCTYPE svg PUBLIC "-//W3C//DTD SVG 20010904//EN"
 "http://www.w3.org/TR/2001/REC-SVG-20010904/DTD/svg10.dtd">
<svg version="1.0" xmlns="http://www.w3.org/2000/svg"
 width="1280.000000pt" height="1280.000000pt" viewBox="0 0 1280.000000 1280.000000"
 preserveAspectRatio="xMidYMid meet">
<metadata>
Created by potrace 1.14, written by Peter Selinger 2001-2017
</metadata>
<g transform="translate(0.000000,1280.000000) scale(0.100000,-0.100000)"
fill="#000000" stroke="none">
<path d="M4747 9304 c-1 -1 -51 -4 -112 -8 -60 -3 -119 -8 -130 -10 -18 -3
-46 -7 -150 -21 -44 -5 -216 -34 -245 -41 -49 -10 -127 -14 -300 -14 -222 1
-311 7 -400 27 -15 3 -96 11 -185 18 -321 25 -1785 26 -1925 1 -26 -5 -198
-15 -380 -21 -457 -17 -740 -34 -855 -50 -11 -1 -26 -3 -32 -4 -20 -2 -15 -52
8 -90 24 -39 30 -46 82 -85 41 -30 59 -28 39 4 -7 11 -17 29 -24 40 -15 23
-12 27 31 33 37 6 67 -4 126 -44 52 -35 115 -70 115 -64 0 2 -18 23 -40 47
-45 49 -50 67 -17 69 43 2 62 -3 92 -25 32 -25 133 -79 178 -95 40 -15 34 1
-23 61 -27 29 -50 56 -50 60 0 17 48 -5 101 -47 50 -39 146 -95 163 -95 22 0
-3 31 -55 69 -50 36 -58 46 -47 57 7 7 30 15 50 17 48 5 117 -23 232 -96 94
-60 134 -75 94 -34 -13 13 -31 26 -41 30 -9 3 -17 11 -17 17 0 5 -6 10 -13 10
-7 0 -28 14 -47 32 -32 29 -33 32 -15 39 46 17 123 -15 191 -79 43 -40 139
-77 171 -65 9 4 -4 22 -44 60 -32 30 -68 62 -81 71 -31 20 -11 33 43 26 94
-12 75 -4 193 -81 46 -30 95 -57 110 -59 l26 -5 -19 22 c-11 13 -45 47 -75 76
l-55 52 75 -5 c80 -6 123 -20 155 -51 43 -40 165 -105 165 -88 0 4 -25 32 -56
62 -60 58 -60 73 -1 67 44 -6 105 -38 152 -80 22 -20 53 -43 69 -51 33 -17 86
-34 86 -27 0 2 -25 32 -56 65 -60 65 -60 81 0 72 41 -7 78 -26 156 -83 66 -48
133 -90 143 -90 3 0 -26 33 -64 73 -38 39 -68 79 -67 87 8 39 122 -1 200 -69
102 -90 198 -150 198 -124 0 17 -55 74 -103 106 -58 39 -83 64 -74 74 4 3 31
6 61 7 55 0 92 -18 156 -77 30 -27 82 -50 105 -45 12 2 6 15 -29 56 -48 55
-53 67 -36 77 14 8 61 -18 126 -71 97 -79 144 -108 144 -86 0 4 -27 36 -59 72
-33 36 -57 68 -55 72 2 4 23 5 47 2 37 -4 121 -51 161 -89 26 -24 115 -85 125
-85 21 0 11 16 -49 81 -32 35 -59 70 -60 77 0 19 65 15 113 -8 23 -11 73 -45
110 -75 104 -84 120 -85 42 -4 -38 40 -74 77 -79 80 -15 12 14 39 40 39 40 0
132 -60 219 -144 35 -34 74 -60 80 -55 3 4 -34 50 -112 138 -21 24 -28 38 -20
43 30 19 105 -24 199 -115 18 -17 68 -41 68 -33 0 2 -12 18 -27 34 -53 58 -64
75 -52 83 7 4 19 5 28 4 9 -2 25 -4 37 -4 11 -1 21 -7 21 -13 1 -12 9 -94 18
-168 3 -19 7 -69 10 -110 4 -41 10 -79 14 -83 9 -9 34 26 43 58 3 11 25 72 48
135 22 63 45 129 51 145 12 38 40 75 59 79 8 1 24 7 36 14 36 20 124 52 162
60 58 11 184 8 217 -6 63 -26 100 -22 55 6 -50 31 -4 62 86 58 41 -2 74 -11
110 -30 56 -29 110 -47 118 -39 3 3 -9 16 -25 30 -27 23 -28 26 -12 38 21 15
49 6 170 -54 114 -57 165 -54 88 5 -19 14 -32 30 -30 35 11 17 136 -43 243
-118 30 -21 28 -2 -4 37 -15 17 -24 33 -21 36 10 10 124 -38 197 -83 101 -62
170 -98 206 -107 29 -7 28 -7 -15 38 -25 25 -43 48 -40 51 13 12 57 11 89 -2
19 -7 69 -36 113 -64 86 -55 110 -59 53 -8 -38 33 -42 50 -12 55 29 4 76 -17
161 -71 110 -71 106 -68 99 -51 -3 9 -10 16 -14 16 -4 0 -15 12 -25 26 -14 21
-14 28 -4 35 17 10 38 -2 125 -67 39 -30 75 -54 81 -54 7 0 9 14 6 36 -5 34
-4 36 19 29 12 -4 51 -23 86 -42 55 -30 61 -37 50 -51 -55 -68 -157 -143 -269
-197 -136 -67 -255 -180 -244 -234 19 -102 219 -233 355 -233 130 -1 214 24
328 97 101 63 159 84 216 78 42 -4 103 -36 153 -80 17 -15 57 -50 89 -78 172
-149 224 -223 416 -590 31 -60 67 -131 80 -157 13 -27 26 -48 30 -48 5 0 8 -4
8 -9 0 -17 121 -224 158 -273 21 -26 72 -116 116 -200 77 -150 149 -283 185
-343 23 -38 52 -88 112 -197 27 -49 71 -123 99 -165 58 -90 64 -130 25 -168
-13 -14 -30 -26 -37 -26 -7 -1 -24 -3 -38 -5 -14 -1 -90 -3 -169 -4 -109 -1
-146 2 -152 12 -5 7 -5 16 -1 20 12 12 103 25 236 33 43 3 81 7 84 10 14 14
-61 22 -213 24 -160 1 -235 11 -235 31 0 12 19 23 49 27 50 6 147 14 221 18
102 4 104 4 98 10 -2 3 -47 7 -99 10 -130 7 -188 13 -199 20 -14 9 -12 35 3
36 6 0 19 2 28 4 9 1 51 6 95 9 43 3 82 10 87 15 10 10 -35 30 -80 35 -50 7
-54 13 -31 52 22 37 16 55 -19 60 -32 4 -166 13 -265 19 -54 3 -108 9 -122 15
-26 9 -42 28 -32 37 3 3 68 7 146 8 78 2 144 6 147 9 16 15 -6 18 -210 31
-106 6 -135 14 -156 39 -12 14 -10 16 10 17 28 1 130 8 177 12 35 3 68 26 41
28 -14 2 -24 3 -169 14 -103 9 -130 18 -130 45 0 22 -2 22 97 24 90 2 102 11
26 21 -72 9 -180 43 -186 60 -3 6 -2 18 3 25 7 11 20 15 80 19 8 1 22 6 30 11
22 14 3 28 -63 45 -31 8 -74 22 -95 31 -35 15 -36 16 -18 30 11 7 30 12 43 10
47 -9 31 29 -26 58 -49 26 -119 94 -157 151 -17 28 -45 64 -61 82 l-29 32 -99
-50 c-130 -65 -140 -80 -62 -99 128 -31 141 -38 173 -87 17 -27 43 -69 57 -95
36 -65 76 -128 104 -163 34 -44 37 -47 52 -77 8 -15 22 -36 31 -45 8 -10 31
-40 50 -68 37 -55 171 -237 180 -245 3 -3 24 -30 45 -60 22 -30 72 -93 110
-140 39 -47 83 -103 100 -125 16 -22 38 -49 48 -60 36 -38 49 -76 43 -117 -12
-75 -43 -86 -234 -85 -123 0 -182 9 -182 28 0 5 3 10 8 10 25 5 58 7 142 13
241 16 228 33 -24 32 l-170 -1 -28 30 c-31 33 -35 45 -15 46 6 0 44 3 82 5 67
5 148 10 190 13 15 1 12 5 -14 16 -37 17 -91 23 -228 29 -66 2 -100 8 -119 21
-14 9 -23 19 -20 22 3 4 43 8 88 10 46 2 94 5 108 8 14 2 32 4 40 5 9 1 4 6
-10 11 -14 6 -77 13 -140 15 -124 5 -158 13 -179 45 -23 38 -15 40 174 49 27
1 28 2 8 10 -27 11 -91 21 -161 25 -49 3 -111 29 -98 42 3 3 37 7 76 8 65 3
90 9 79 19 -2 2 -31 6 -64 10 -109 11 -148 25 -160 54 -11 30 21 46 105 51 27
2 -22 26 -80 40 -30 8 -65 19 -78 24 -20 9 -72 100 -72 127 0 7 -9 25 -21 41
-22 32 -28 81 -12 101 13 15 53 87 53 93 0 4 -60 39 -70 40 -3 0 -10 3 -15 7
-6 4 -42 18 -80 32 -39 15 -79 30 -90 36 -41 19 -215 68 -232 65 -24 -3 -20
-38 8 -66 12 -12 54 -49 92 -82 62 -54 100 -109 112 -161 8 -38 20 -55 98
-139 26 -29 64 -77 84 -107 20 -30 42 -59 49 -65 13 -11 51 -70 91 -143 14
-26 29 -49 32 -52 3 -3 18 -23 33 -45 27 -42 48 -64 210 -232 l98 -102 -17
-29 c-21 -36 -113 -102 -145 -103 -52 -2 -198 36 -198 51 0 10 61 20 142 23
63 2 70 8 36 25 -33 15 -71 22 -152 28 -87 6 -124 12 -145 24 -13 7 -9 10 14
11 54 2 129 8 155 13 14 2 32 5 40 5 13 1 13 2 0 11 -20 13 -101 29 -180 35
-79 6 -106 10 -143 20 -35 9 -23 24 24 32 19 3 41 7 49 8 8 2 30 4 48 4 30 1
47 16 20 19 -18 1 -58 8 -93 15 -16 3 -46 9 -65 11 -83 13 -150 44 -150 70 0
20 67 33 173 35 16 1 26 5 23 10 -6 9 -58 19 -190 36 -27 4 -60 11 -74 16 -23
9 -24 11 -9 26 14 14 55 21 142 22 68 2 -27 38 -119 46 -110 9 -146 63 -47 70
14 1 32 3 39 3 25 3 2 19 -45 32 -59 16 -123 47 -123 60 0 5 5 12 10 15 20 12
9 34 -20 40 -45 10 -57 27 -59 87 -1 29 -4 60 -6 68 -4 14 -83 38 -145 46 -8
1 -39 4 -68 8 -29 4 -57 4 -62 1 -8 -5 25 -60 50 -85 3 -3 30 -34 60 -70 30
-36 60 -71 67 -78 24 -25 83 -99 83 -104 0 -6 81 -130 90 -138 7 -7 80 -100
105 -136 27 -39 101 -120 149 -163 22 -20 65 -59 95 -87 l55 -51 -55 -36 c-93
-62 -120 -60 -299 20 l-25 12 25 1 c89 6 123 9 127 13 2 3 -22 10 -54 17 -110
22 -148 33 -185 53 -21 12 -38 23 -38 26 0 3 30 7 66 8 64 2 83 7 72 18 -3 3
-15 8 -27 10 -13 2 -30 6 -39 9 -9 3 -37 8 -61 11 -52 7 -96 23 -88 31 3 4 32
8 63 9 31 2 61 8 67 14 6 6 7 11 1 12 -51 3 -127 18 -180 34 -90 27 -97 68
-11 71 72 3 77 4 77 14 0 16 -37 27 -115 34 -74 8 -136 31 -143 55 -3 9 0 12
11 8 8 -3 18 -3 22 1 7 7 18 9 85 11 52 1 51 13 -4 30 -53 15 -89 55 -111 122
-19 56 -95 146 -132 155 -22 6 -24 10 -18 40 3 18 17 58 31 89 20 44 25 68 23
122 -1 38 -7 79 -13 93 -32 78 -97 131 -197 161 -37 11 -74 28 -82 37 -8 9
-22 48 -31 86 -22 89 -48 139 -88 169 -101 76 -269 82 -494 20 -77 -22 -155
-39 -173 -39 -30 1 -35 6 -51 45 -23 60 -59 94 -144 135 -96 46 -146 58 -242
58 -160 -1 -182 -10 -226 -91 -12 -21 -25 -31 -40 -31 -46 0 -211 51 -346 106
-75 31 -146 58 -157 60 -11 2 -33 7 -50 11 -113 26 -163 17 -229 -40 -15 -13
-48 -34 -72 -46 -60 -30 -74 -46 -69 -81 3 -25 -5 -37 -62 -87 -35 -32 -78
-66 -94 -76 -16 -11 -29 -22 -29 -27 0 -9 -105 -56 -147 -65 -18 -4 -33 -3
-33 2 0 4 34 44 75 88 42 44 81 89 87 100 11 19 11 19 -18 1 -16 -11 -91 -64
-167 -118 -76 -55 -159 -110 -184 -124 -43 -22 -123 -34 -123 -16 0 4 41 36
90 72 88 63 160 125 160 136 0 15 -57 -11 -104 -46 -29 -22 -57 -40 -61 -40
-5 0 -45 -26 -89 -59 -45 -32 -99 -68 -122 -79 -40 -20 -121 -35 -128 -23 -2
3 35 38 82 76 126 103 155 132 148 150 -5 14 -13 11 -52 -17 -26 -18 -56 -40
-68 -48 -11 -8 -65 -50 -119 -92 -112 -89 -137 -103 -189 -107 -58 -4 -48 19
35 83 77 59 89 71 100 98 17 47 -25 25 -128 -67 -116 -103 -154 -124 -227
-129 -46 -3 -45 20 3 62 75 65 119 109 119 121 0 17 -13 13 -47 -11 -16 -13
-42 -32 -58 -43 -15 -11 -32 -25 -39 -30 -6 -6 -33 -26 -61 -45 -27 -19 -52
-37 -55 -40 -10 -10 -55 -30 -86 -39 -63 -18 -54 4 36 93 49 49 87 93 84 97
-7 12 -52 -12 -89 -47 -93 -87 -216 -157 -245 -139 -5 3 29 45 77 92 128 126
76 123 -62 -3 -71 -66 -142 -104 -190 -104 l-40 0 83 76 c45 42 80 80 77 84
-7 11 -42 4 -64 -12 -26 -20 -124 -101 -145 -121 -30 -26 -141 -53 -168 -40
-3 2 23 31 58 65 61 59 74 80 55 92 -11 7 -106 -58 -175 -120 -28 -26 -79 -45
-136 -51 -33 -3 -60 -4 -60 -1 0 3 25 32 55 64 53 58 59 83 15 69 -12 -4 -58
-31 -101 -61 -106 -72 -131 -84 -176 -84 l-38 0 49 43 c95 82 140 126 135 131
-10 10 -154 -69 -189 -104 -31 -31 -38 -46 -52 -125 -9 -50 -19 -98 -23 -107
-5 -13 0 -19 22 -24 62 -16 407 -5 643 21 36 4 76 9 90 10 75 8 148 17 170 20
14 3 47 7 74 10 27 3 71 10 98 15 27 5 52 9 56 9 4 -1 9 -1 12 1 3 1 16 3 30
6 89 14 148 25 170 29 67 15 293 50 395 61 91 11 285 51 480 99 119 30 135 33
200 41 28 3 88 12 135 21 47 8 99 17 115 20 17 2 41 6 55 9 45 8 263 40 332
49 18 2 58 8 88 12 70 10 506 10 542 1 19 -6 31 -20 44 -55 11 -28 39 -68 73
-101 52 -51 56 -58 88 -170 18 -64 48 -140 65 -170 41 -67 105 -132 132 -133
12 -1 38 -2 59 -3 20 -1 42 -7 48 -13 6 -6 12 -72 14 -149 4 -158 7 -179 32
-207 40 -45 110 -109 148 -134 49 -33 73 -58 105 -113 64 -107 89 -136 141
-168 167 -101 291 -101 422 1 l38 29 83 -21 c106 -26 191 -22 253 14 23 14 43
30 43 35 0 16 60 12 146 -9 44 -10 122 -29 174 -41 98 -23 234 -73 260 -95 19
-16 96 -55 109 -55 5 0 22 -5 38 -12 35 -14 50 -17 88 -19 34 -2 105 21 105
33 0 4 5 8 11 8 6 0 25 11 43 25 33 25 56 32 56 17 0 -12 76 -47 145 -67 63
-18 175 -24 235 -12 22 4 51 22 75 47 74 74 99 80 160 34 46 -34 114 -43 219
-30 93 12 144 39 211 112 l60 65 65 5 c73 5 150 13 195 19 17 2 44 6 61 8 57
8 151 83 185 150 11 20 23 37 27 38 11 1 77 6 167 14 44 3 97 8 117 10 67 7
339 82 501 139 l158 55 182 -4 c100 -3 205 -7 232 -9 28 -2 84 -7 125 -10 41
-4 98 -11 125 -16 28 -5 64 -11 80 -14 59 -10 158 -35 290 -76 125 -38 262
-75 340 -90 33 -6 112 -24 175 -40 63 -16 126 -31 140 -34 14 -2 48 -9 75 -15
28 -5 73 -12 100 -15 28 -3 75 -9 105 -13 30 -4 249 -7 485 -7 386 1 506 4
593 18 15 3 49 7 77 11 27 3 50 7 51 8 1 1 4 18 7 37 8 55 22 81 76 140 47 50
60 70 46 70 -13 0 -91 -45 -153 -87 -97 -66 -176 -92 -208 -68 -15 10 -7 19
56 71 98 79 144 128 129 133 -13 4 -75 -25 -97 -46 -7 -7 -16 -13 -20 -13 -4
0 -29 -20 -56 -44 -93 -84 -170 -114 -273 -107 -41 2 -8 42 82 101 107 69 123
99 38 68 -18 -7 -33 -16 -33 -20 0 -4 -7 -8 -15 -8 -8 0 -15 -4 -15 -9 0 -5
-15 -16 -33 -24 -18 -9 -49 -30 -68 -46 -62 -55 -137 -86 -211 -88 -38 -1 -68
1 -68 5 1 4 52 40 115 81 63 41 112 78 109 82 -9 15 -30 3 -193 -108 -63 -43
-178 -69 -285 -64 -15 1 -16 4 -6 16 7 8 17 15 22 15 5 0 18 8 29 19 11 10 45
30 77 45 100 47 124 62 121 72 -7 18 -55 3 -124 -39 -87 -53 -154 -85 -197
-93 -52 -10 -98 -12 -98 -4 0 10 62 63 93 79 51 27 27 30 -35 5 -138 -55 -217
-68 -273 -42 l-25 11 32 20 c18 11 71 39 118 63 47 23 94 50 105 59 20 16 20
16 -5 12 -49 -10 -66 -16 -172 -62 -123 -53 -187 -66 -242 -51 -37 11 -37 12
-20 27 24 22 116 66 154 74 16 3 34 13 40 21 7 7 16 12 20 9 4 -3 10 1 13 9 3
8 0 13 -6 12 -7 -2 -29 -6 -49 -11 -21 -4 -38 -11 -38 -16 0 -5 -4 -9 -9 -9
-5 0 -20 -4 -33 -9 -13 -5 -27 -10 -33 -11 -5 -1 -18 -6 -28 -12 -32 -17 -163
-38 -187 -30 -7 3 41 32 106 66 169 88 162 104 -13 29 -17 -7 -33 -13 -36 -13
-3 0 -18 -5 -34 -12 -45 -18 -55 -20 -118 -23 -104 -6 -99 1 63 86 113 59 117
79 6 28 -130 -59 -208 -77 -287 -64 l-38 7 43 27 c48 30 90 50 160 76 53 20
79 41 50 42 -28 1 -102 -22 -202 -65 -105 -45 -157 -58 -190 -47 -20 6 -16 11
35 41 31 19 60 34 66 34 5 0 9 4 9 9 0 5 10 11 22 14 12 4 19 9 16 13 -4 3
-29 -1 -56 -10 -27 -9 -58 -18 -70 -21 -12 -2 -26 -6 -30 -9 -5 -3 -19 -7 -33
-10 -13 -3 -42 -10 -64 -15 -51 -13 -85 -14 -85 -1 0 6 7 10 15 10 8 0 23 4
33 9 9 5 32 15 50 21 70 26 22 33 -68 10 -19 -5 -60 -12 -90 -16 -30 -3 -57
-8 -60 -10 -3 -1 -12 1 -20 6 -10 6 -6 13 17 27 l31 19 -19 24 c-11 14 -28 41
-39 60 -43 79 -82 103 -190 116 -25 3 -66 12 -92 19 -48 14 -48 14 -48 -10 0
-13 -3 -26 -7 -28 -5 -2 -40 -1 -80 2 l-72 6 26 -27 c21 -22 24 -30 14 -41 -6
-8 -21 -13 -34 -11 -41 5 -102 15 -112 18 -5 2 -19 0 -30 -4 -18 -6 -17 -8 11
-23 17 -9 36 -22 43 -31 10 -12 9 -17 -8 -25 -16 -9 -33 -7 -77 9 -32 11 -59
18 -61 16 -6 -5 31 -42 50 -49 24 -9 21 -24 -9 -43 -21 -15 -33 -15 -77 -6
-96 21 -114 23 -95 9 9 -7 31 -20 48 -30 17 -9 30 -23 28 -30 -7 -18 -79 -20
-142 -3 -31 8 -56 10 -56 6 0 -4 21 -21 47 -36 39 -22 44 -28 29 -34 -11 -3
-44 -3 -75 1 -107 15 -131 16 -131 7 0 -5 8 -11 18 -14 40 -14 72 -29 72 -35
0 -18 -45 -14 -131 12 -51 15 -95 27 -96 26 -1 -2 23 -18 53 -37 29 -19 54
-38 54 -42 0 -16 -51 -12 -135 10 -49 13 -126 25 -171 26 -73 3 -87 6 -142 40
-33 20 -94 73 -136 117 -63 66 -86 101 -132 197 -31 64 -57 124 -59 132 -2 8
-6 23 -10 33 -13 32 18 9 84 -63 35 -39 67 -70 71 -70 4 0 -4 22 -17 49 -13
27 -32 70 -43 95 -18 43 -18 46 -1 46 10 0 43 -33 78 -78 51 -64 124 -138 180
-182 34 -28 21 6 -22 55 -113 129 -159 191 -147 199 5 3 57 -33 116 -81 59
-47 109 -83 112 -81 2 3 -27 45 -66 93 -38 48 -70 90 -70 93 0 11 62 -9 100
-33 22 -14 49 -25 61 -25 19 0 18 3 -10 29 -17 16 -31 39 -31 51 0 24 7 24 78
1 29 -9 33 -8 30 6 -7 35 -59 55 -183 68 -83 10 -287 69 -360 104 -117 58
-245 207 -337 394 -15 31 -28 63 -28 70 0 7 -4 17 -9 23 -18 20 -71 208 -85
304 -14 99 -21 225 -26 452 l-2 88 -37 22 c-20 12 -60 41 -89 65 -64 52 -90
57 -68 16 8 -16 30 -44 49 -63 36 -37 65 -87 61 -107 -1 -7 -2 -17 -3 -23 -3
-25 -34 -2 -143 103 -126 124 -154 144 -137 99 13 -35 52 -85 105 -136 23 -23
50 -53 59 -68 l17 -28 -28 0 c-23 0 -49 21 -139 115 -60 64 -113 115 -118 115
-12 0 28 -72 62 -109 17 -19 29 -37 26 -39 -2 -3 0 -14 6 -24 7 -13 7 -24 2
-29 -9 -9 -89 70 -150 148 -38 48 -80 93 -87 93 -4 0 -5 -4 -2 -8 2 -4 14 -31
25 -60 19 -48 19 -52 3 -52 -9 0 -40 22 -69 49 -28 27 -54 43 -56 37 -2 -6 -4
-37 -3 -70 2 -57 1 -59 -36 -82 -21 -13 -44 -24 -53 -24 -8 0 -15 -4 -15 -9 0
-5 -10 -12 -22 -16 -13 -4 -25 -8 -28 -9 -36 -16 -63 -26 -71 -26 -5 0 -9 -5
-9 -10 0 -6 -3 -9 -7 -8 -5 1 -42 -9 -83 -22 -74 -23 -118 -26 -235 -16 -100
8 -152 49 -169 132 -6 27 -2 38 25 69 65 74 178 147 248 161 34 7 38 -1 16
-33 -14 -20 -129 -113 -140 -113 -3 0 -26 -13 -51 -29 -64 -39 -39 -48 31 -11
95 50 194 138 235 209 17 30 54 64 120 111 104 74 169 133 214 195 16 22 40
51 54 64 27 27 129 62 182 63 40 0 177 -15 235 -26 11 -2 70 -13 130 -24 206
-39 260 -50 365 -77 166 -43 185 -49 184 -60 -2 -18 36 -118 61 -161 26 -45
141 -155 184 -177 14 -7 35 -18 46 -25 11 -6 47 -23 80 -38 101 -45 294 -188
460 -339 18 -16 49 -45 69 -63 20 -18 48 -50 62 -71 19 -30 39 -44 82 -60 62
-23 102 -33 102 -25 0 3 -17 23 -37 45 -38 40 -53 79 -30 79 15 0 90 -39 97
-51 9 -14 80 -40 80 -30 0 6 -22 35 -50 67 -27 31 -47 60 -45 64 6 10 43 1 51
-11 3 -5 14 -9 25 -9 10 0 19 -4 19 -10 0 -5 5 -10 11 -10 6 0 39 -19 73 -43
104 -74 113 -72 42 8 -24 27 -42 53 -40 56 12 20 136 -24 184 -66 39 -33 80
-57 80 -45 0 6 -18 30 -40 54 -42 45 -42 56 -3 56 35 0 85 -23 126 -59 41 -36
99 -59 90 -35 -3 8 -9 14 -13 14 -4 0 -13 13 -18 29 -19 55 38 46 120 -20 53
-42 86 -39 53 5 -25 33 -6 36 65 10 47 -16 76 -22 87 -16 10 4 27 7 38 6 11
-2 40 -5 65 -8 25 -2 77 -7 115 -11 76 -8 841 -8 965 -1 42 3 89 10 105 17 17
7 39 13 50 14 68 8 301 23 445 30 36 2 135 7 220 11 193 10 727 10 836 0 69
-7 88 -5 119 10 49 23 38 27 -125 48 -188 23 -224 27 -455 42 -103 7 -885 11
-885 4 0 -3 -62 -6 -138 -6 -75 -1 -218 -5 -317 -10 -319 -15 -1282 -8 -1625
11 -325 19 -470 44 -561 97 -25 15 -144 111 -265 215 -271 231 -352 296 -479
384 -130 90 -227 136 -302 144 -27 3 -59 8 -73 11 -14 3 -32 7 -40 9 -8 2 -73
17 -145 35 -218 53 -268 59 -425 56 -256 -6 -353 -40 -480 -169 -29 -30 -83
-25 -143 15 -30 20 -76 44 -103 53 -47 16 -250 70 -296 79 -13 2 -30 7 -38 10
-8 3 -32 8 -54 11 -21 3 -42 7 -46 10 -4 2 -22 7 -41 9 -19 3 -41 7 -49 9 -14
4 -79 17 -110 22 -8 2 -26 6 -40 9 -14 4 -41 9 -60 11 -38 4 -71 11 -100 20
-10 3 -27 8 -37 10 -10 2 -52 11 -93 20 -41 9 -104 23 -140 31 -35 8 -78 18
-95 24 -39 12 -248 32 -258 24z m-576 -1805 c22 -5 62 -32 99 -67 51 -47 63
-64 66 -95 4 -30 0 -42 -20 -62 -34 -34 -56 -31 -98 13 -40 41 -158 200 -158
211 0 21 31 21 111 0z m-721 -57 c0 -22 -102 -132 -122 -132 -12 0 -10 7 9 43
9 18 18 34 18 37 11 43 20 59 38 68 22 9 57 0 57 -16z m120 -23 c0 -16 -92
-99 -111 -99 -16 0 -15 5 12 45 17 25 39 51 51 59 20 14 48 12 48 -5z m117
-52 c-8 -12 -28 -27 -45 -34 -45 -18 -50 8 -10 46 26 24 36 28 51 20 16 -9 17
-13 4 -32z m375 14 c2 -5 26 -34 53 -63 28 -29 61 -67 73 -85 l22 -31 -27 -20
c-51 -35 -63 -35 -95 0 -54 61 -79 136 -62 191 6 18 30 24 36 8z m-238 -36
c-4 -8 -18 -18 -33 -21 -14 -3 -32 -7 -38 -10 -23 -6 -14 24 13 45 20 16 31
18 45 11 10 -6 16 -17 13 -25z m1116 26 c0 -4 -55 -33 -121 -66 -174 -86 -196
-113 -145 -179 13 -17 33 -50 45 -73 25 -51 55 -73 106 -77 l37 -4 -30 31
c-35 38 -70 97 -76 132 -3 18 3 31 26 50 33 28 149 89 208 110 50 18 79 0 115
-67 15 -29 39 -73 52 -98 l24 -45 -64 -60 c-44 -42 -95 -76 -160 -108 -106
-52 -132 -56 -170 -27 -14 11 -33 20 -42 20 -17 0 -17 -18 1 -64 9 -24 -14
-19 -42 9 -14 14 -39 32 -56 41 -25 13 -32 14 -39 2 -13 -19 -12 -21 21 -66
16 -23 26 -43 22 -46 -12 -7 -58 19 -111 62 -76 64 -89 31 -24 -59 39 -55 42
-73 11 -63 -20 5 -54 31 -150 112 -15 13 -18 13 -24 -1 -3 -9 12 -43 37 -82
31 -49 39 -69 30 -78 -8 -8 -11 -8 -11 1 0 7 -6 12 -12 12 -14 0 -40 20 -111
82 -23 21 -43 33 -45 28 -2 -5 3 -28 11 -52 22 -63 9 -68 -38 -16 -30 34 -49
69 -73 139 -43 126 -47 160 -25 188 10 12 27 24 38 26 11 2 21 4 23 5 1 2 5 3
10 5 36 10 172 74 200 94 16 11 46 26 68 34 21 8 91 37 154 64 101 44 201 76
265 86 32 5 65 3 65 -2z m-1920 -32 c-15 -28 -86 -77 -128 -89 -20 -5 -37 -8
-39 -6 -2 1 19 21 45 43 89 76 147 100 122 52z m2120 -10 c0 -4 6 -14 14 -21
21 -21 47 -76 38 -82 -7 -4 -103 112 -111 135 -2 7 10 4 28 -7 17 -10 31 -22
31 -25z m-1133 -109 c4 -14 15 -38 25 -55 29 -48 22 -63 -13 -29 -34 31 -79
116 -79 148 0 17 4 16 30 -9 17 -16 34 -41 37 -55z m1244 -263 c-6 -8 -48 -32
-95 -55 -46 -23 -98 -55 -116 -72 -28 -26 -31 -34 -25 -62 4 -18 22 -55 40
-83 40 -64 87 -156 81 -162 -6 -7 -45 16 -89 50 -55 45 -67 25 -27 -46 17 -30
27 -58 22 -61 -5 -3 -40 15 -78 39 -40 27 -70 41 -73 34 -2 -6 11 -31 28 -56
40 -56 36 -81 -8 -59 -16 9 -35 21 -43 29 -20 19 -78 59 -78 53 0 -2 14 -34
30 -70 17 -37 28 -71 25 -76 -10 -16 -57 15 -103 69 -44 51 -68 63 -78 37 -7
-18 23 -77 47 -94 25 -18 25 -52 0 -52 -19 0 -58 29 -115 85 -17 17 -40 37
-50 45 -18 14 -19 14 -9 -5 21 -38 80 -171 87 -193 9 -28 -5 -28 -30 -1 -28
31 -104 82 -104 69 0 -6 18 -44 40 -84 44 -81 46 -86 26 -86 -17 0 -73 56 -93
94 -16 32 -24 233 -10 296 8 39 3 36 207 142 222 116 304 160 330 178 22 14
85 43 100 45 3 1 23 9 45 19 33 15 108 43 124 45 2 1 -2 -5 -8 -12z m187 -31
c25 -22 105 -139 115 -168 4 -11 -4 -29 -20 -48 -29 -35 -168 -120 -197 -120
-11 0 -34 16 -52 35 -33 37 -41 40 -62 27 -9 -6 -8 -17 7 -48 20 -41 15 -58
-15 -52 -11 2 -28 30 -48 78 -17 41 -43 98 -58 127 -16 29 -24 54 -20 57 4 2
37 20 72 39 36 18 83 44 105 57 89 51 131 55 173 16z m110 -16 c25 -38 32 -75
9 -50 -8 8 -24 33 -37 54 -29 48 -6 45 28 -4z m-53 -437 c22 -14 48 -36 58
-50 16 -21 17 -28 6 -54 -10 -25 -100 -124 -152 -166 -24 -19 -95 -53 -112
-53 -21 0 -91 49 -133 93 l-34 35 97 73 c54 41 120 93 149 115 55 44 59 45
121 7z m4143 -22 c16 -10 -50 -27 -113 -30 -53 -3 -39 8 32 24 32 7 60 13 63
14 3 0 11 -3 18 -8z m-4484 -83 c-16 -18 -36 -39 -45 -48 -37 -35 -32 -54 28
-127 32 -38 73 -84 91 -103 18 -19 40 -47 48 -63 13 -24 13 -28 0 -33 -14 -5
-58 14 -106 46 -82 56 -108 70 -125 70 -14 0 2 -21 56 -75 86 -85 109 -119 91
-137 -16 -16 -46 -1 -107 55 -135 124 -155 136 -155 99 0 -22 49 -83 117 -146
53 -49 66 -76 37 -76 -16 0 -83 43 -119 77 -29 26 -103 73 -116 73 -9 0 40
-65 94 -125 10 -11 23 -28 28 -37 16 -30 -31 -22 -84 13 -131 87 -179 216
-113 304 50 65 106 111 199 164 51 29 110 63 132 77 22 13 49 24 59 24 17 0
16 -4 -10 -32z m2491 -18 l20 -1 -20 -9 c-31 -12 -152 -7 -167 8 -12 12 25 13
167 2z m-2030 -59 c-17 -33 -35 -41 -35 -15 0 19 19 56 34 66 18 12 19 -18 1
-51z m-245 -211 c0 -5 -12 -10 -26 -10 -14 0 -23 4 -19 10 3 6 15 10 26 10 10
0 19 -4 19 -10z m197 -114 c30 -10 21 -53 -18 -89 -28 -26 -35 -27 -98 -24
-68 4 -121 22 -128 44 -6 16 61 64 100 73 37 8 113 6 144 -4z"/>
<path d="M3845 5511 c-20 -6 -20 -14 -19 -896 1 -489 2 -896 3 -903 1 -9 17
-12 59 -10 l57 3 3 903 2 902 -22 1 c-13 0 -32 2 -43 3 -11 1 -29 0 -40 -3z"/>
<path d="M8887 5512 c-16 -3 -17 -69 -17 -907 l0 -903 60 -1 c33 0 60 3 61 7
1 10 1 1728 0 1772 -1 34 -2 35 -44 35 -24 0 -51 -1 -60 -3z"/>
<path d="M4827 5384 c-1 -1 -33 -5 -72 -8 -38 -4 -79 -8 -90 -11 -11 -2 -25
-4 -30 -4 -7 -1 -10 -207 -10 -601 l0 -600 25 -4 c98 -16 356 -12 445 8 138
30 242 114 280 226 15 45 21 146 12 187 -21 84 -87 163 -173 204 l-65 31 38
20 c104 54 161 149 158 259 -3 103 -42 171 -130 225 -57 35 -99 50 -170 60
-45 6 -212 13 -218 8z m238 -144 c17 -6 32 -11 33 -10 11 6 64 -60 77 -94 35
-96 -5 -195 -100 -244 -43 -23 -64 -27 -171 -30 l-121 -4 0 196 0 196 31 5
c82 13 195 7 251 -15z m8 -528 c110 -49 150 -105 150 -208 1 -156 -114 -238
-330 -236 -52 1 -97 3 -102 6 -4 3 -8 109 -8 236 l0 231 121 -4 c96 -3 132 -9
169 -25z"/>
<path d="M5857 5384 c-1 -1 -45 -4 -97 -8 -52 -3 -104 -8 -115 -10 -11 -3 -25
-5 -30 -5 -7 -1 -10 -208 -10 -603 l0 -603 73 0 c41 0 76 4 80 9 3 6 6 125 6
265 l1 256 90 -2 c112 -2 135 -6 183 -33 57 -32 88 -91 123 -231 17 -68 32
-128 33 -134 8 -39 38 -125 44 -126 21 -4 148 -5 155 -2 4 2 2 13 -3 24 -6 10
-31 98 -55 195 -25 98 -54 195 -64 218 -24 55 -66 103 -110 125 l-36 19 40 18
c150 70 218 220 178 388 -32 130 -137 209 -307 232 -49 6 -174 12 -179 8z
m230 -158 c68 -35 103 -91 108 -172 5 -72 -10 -118 -51 -164 -57 -63 -118 -83
-259 -84 l-120 -1 -1 215 c0 118 3 220 7 225 4 6 38 12 76 13 37 2 69 5 71 6
6 7 142 -23 169 -38z"/>
<path d="M7707 5384 c-1 -1 -36 -5 -77 -8 -85 -7 -120 -13 -129 -22 -7 -7 -9
-1194 -1 -1195 3 -1 38 -2 78 -3 59 -2 72 1 73 13 0 9 1 127 2 264 l0 247 26
1 c112 6 189 -3 236 -26 77 -38 105 -94 156 -315 12 -52 29 -115 38 -140 l17
-45 82 0 c45 0 82 0 82 1 0 1 -6 17 -14 36 -13 29 -60 203 -72 262 -27 138
-81 230 -158 270 l-28 14 49 25 c105 54 171 154 177 268 9 191 -102 314 -314
345 -41 6 -218 12 -223 8z m268 -159 c81 -40 119 -115 110 -217 -6 -61 -25
-98 -75 -140 -55 -47 -105 -60 -241 -63 l-116 -2 1 218 c1 119 4 220 8 224 12
12 151 21 208 13 30 -5 78 -19 105 -33z"/>
<path d="M6457 5365 c-2 -5 -3 -34 -2 -63 2 -51 17 -78 37 -66 8 5 116 5 258
1 l75 -2 1 -540 0 -540 80 0 79 0 2 515 c1 283 2 527 2 543 l1 27 118 1 c158
0 204 -1 212 -6 4 -3 15 1 25 8 16 13 19 37 12 107 l-2 25 -447 0 c-297 0
-449 -3 -451 -10z"/>
</g>
</svg>
