<svg id="Layer_1" data-name="Layer 1" xmlns="http://www.w3.org/2000/svg" viewBox="0 0 1280 640"><defs><style>.cls-1{fill:#3f51b5;}</style></defs><path class="cls-1" d="M447,31.89c-9.6,1.3-21.5,3.1-26.5,4S408.6,38,405,38.59c-7.9,1.3-53,.5-58-1-11.3-3.5-56.7-5.2-133.4-5.2-52.9.1-68.4.4-77.6,1.6-6.3.8-23.9,1.9-39,2.4-51.2,1.7-92.1,4.2-94.8,5.9-.7.4-.4,2.4.5,5.6,1.3,4,2.7,5.9,7.1,9.5,3.1,2.5,6,4.6,6.4,4.8,1.9.8.6-3.7-1.7-5.8-3.3-3.1-1.7-5,4-5,3.4,0,5.6.9,10.6,4.4,3.5,2.3,8,5.1,9.9,6.1,3.4,1.7,3.3,1.5-1.9-4-5.9-6.2-5.7-7.5.8-7.5,2.3,0,4.4.9,6.8,3,1.8,1.6,3.7,3,4.2,3s3.5,1.6,6.7,3.5,6.9,3.5,8.3,3.5c2.3,0,2-.6-3.9-6.5s-6.2-6.5-3.9-6.5c2.7,0,5.5,1.7,11.1,6.6,4.9,4.4,13.8,8.8,15,7.6,1-1-.1-1.9-8.1-7.5-4.8-3.3-5.1-4.4-1.3-5.8,4.9-1.9,11.6-.5,18.2,3.7,3.3,2.1,8.7,5.6,11.9,7.6s6.4,3.8,7.1,3.8c2.1,0-1.9-3.9-7.6-7.6-9.5-6.1-10.4-8.4-3.3-8.4,5,0,6.9,1,14.1,7.2,6.6,5.6,11.2,7.8,16.5,7.8h3.7l-4.9-5a85.31,85.31,0,0,0-8.2-7.3c-1.8-1.2-3.3-2.6-3.3-3.1s3.4-.6,7.6-.3c7.1.5,8.2.9,14.5,5.4,9.7,6.8,12,8.1,15.4,8.8,2.7.6,2.1-.2-5-7.1l-8-7.7,8.1.5c9,.7,10.2,1.1,16.5,6.4,4.3,3.6,14.6,9,15.5,8.2.2-.3-.9-1.7-2.5-3.2s-4.4-4-6-5.6c-4.1-3.8-3.9-5,.7-5,5.3.1,11.4,3.1,17.5,8.9,4.7,4.4,10.2,7.1,14.5,7.1.7,0-1.4-2.5-4.7-5.6-7.1-6.5-7.6-8.4-2.6-8.4s9,1.9,16.4,7.8c3.5,2.9,6.8,5.2,7.3,5.2a13.66,13.66,0,0,1,4.1,2.4c6.5,4.8,6,3.6-2.3-4.8-6.9-7-8.2-8.8-7-9.6,4.5-2.9,11.9.2,23,9.7,8.4,7.2,17,12.9,17,11.2,0-2.3-3.7-7.1-7-9.2a69.64,69.64,0,0,1-7.8-5.6c-5.1-4.1-4.4-5.1,3.9-5.1,5.3,0,5.8.2,11.9,5.5,5.7,4.9,10.8,7.5,14.9,7.5.8,0-1.2-2.7-4.3-6-5.4-5.7-6.3-8-3-8,2.6,0,7.2,2.9,14.4,9,6.1,5.3,11.6,8.7,12.6,7.7.2-.2-2.6-3.5-6.1-7.4S280,55.29,280,55c0-1.2,8.2-.6,10.8.8,1.5.8,7,4.9,12.2,9s10.1,7.6,10.8,7.6c2.6,0,1-2.7-5.5-9.3-5.6-5.5-6.5-6.9-5.3-7.8,1.8-1.2,8.2-.4,12,1.6a110.7,110.7,0,0,1,11.5,8.6c4.8,3.9,9,6.8,9.3,6.4s-2.8-3.9-7.1-7.8-7.7-7.8-7.7-8.5,1.1-1.7,2.4-2.3c3.9-1.8,11.9,2.5,21.9,12,11.7,11,14.1,10.5,3.8-.7-4.5-4.9-8.1-9.2-8.1-9.5s1.7-.7,3.8-.7c3.2,0,5,1.1,13.1,8,8.2,7.1,11.1,9,11.1,7.6a52.14,52.14,0,0,0-4.5-5.7c-2.5-2.9-4.5-5.7-4.5-6.1s2.1-.8,4.8-.6l4.7.3,1.1,9c.7,4.9,1.5,13.6,1.9,19.2s1.1,10.3,1.6,10.3c1.5,0,3.2-4.1,9.5-22.5,5-14.6,6.6-18.2,8.5-19.2,15.8-8.2,28-11.2,37.7-9.3a31.37,31.37,0,0,1,7.2,2,12.58,12.58,0,0,0,4.7,1l2.8-.1-2.7-1.5c-5.9-3.2-2.2-6.9,6.7-6.8,5.2,0,7.2.6,12.7,3.7,3.7,2,7.9,3.7,9.5,3.7l2.8-.1-3.5-2.9c-2.9-2.5-3.2-3.1-2-4,2.7-1.8,5-1.1,15.7,4.5,10.2,5.3,14.3,6.6,14.3,4.5,0-1.2-2.8-4-5.6-5.6-1-.7-1.6-1.5-1.2-1.9,1.3-1.3,8.9,1.5,14.8,5.4,7.5,5,13,8.4,13,7.8a50.89,50.89,0,0,0-3.4-4.8c-1.9-2.4-3.4-4.5-3.2-4.7a70.81,70.81,0,0,1,8.5,2.7,60.22,60.22,0,0,1,15.2,8.2c5.9,4.3,19.9,11,19.9,9.4,0-.3-2.1-2.4-4.6-4.7-4-3.7-4.3-4.3-2.7-4.9,4.8-1.9,8.1-.9,17.8,5.6,11.2,7.4,14.2,8.4,7.2,2.2-2.7-2.3-4.5-4.5-4.1-5s2.4-.7,4.5-.7c3,0,5.9,1.4,14.3,7,5.7,3.8,10.8,7,11.2,7s-.9-1.5-2.9-3.4c-8-7.3-1.5-9,7-1.8,6.3,5.3,11.2,8.6,11.9,7.9.3-.3.1-2.2-.5-4.2-.9-3.4-.9-3.6,1.2-2.9,3.3.9,15.7,7.7,15.7,8.5,0,1.7-15.8,15.1-19.9,17-14.7,6.7-17.5,8.4-24.5,15-4.1,3.8-7.8,7.9-8.1,9-1.2,3.6,1.5,8.7,7.2,13.9,7.3,6.7,12.6,9.7,20.8,11.7,5.9,1.4,8.1,1.5,16,.5,11.1-1.4,15.9-3,21.7-7.4,12.9-9.5,22.5-12,30.6-7.9,5,2.6,24.9,19.7,31.7,27.4,6.2,7.1,13.6,18.7,21.1,33.2,10.3,20.2,21,40.1,23.8,44.4a72,72,0,0,1,4.6,8.6c1,2.3,2.5,4.5,3.3,4.8,2,.8,8.4,11.8,17.3,29.7,3.9,8,10.4,19.9,14.3,26.4s9,15.3,11.2,19.5a176.87,176.87,0,0,0,12.8,21.2c4.8,6.2,4.5,12-.7,15.6-2.3,1.5-5.3,1.8-20.5,2.1-15.8.3-17.8.2-18.3-1.3a2,2,0,0,1,.6-2.5c1.6-1,17.8-2.9,27-3.3,6.4-.2,6.5-.2,3.5-1.7-2.3-1.1-6.8-1.4-19-1.2-8.8.1-17.8-.2-20-.6-4.3-.8-5.9-3.4-2.9-4.6,2.4-.9,19.5-2.5,27.4-2.6,3.6,0,7.1-.4,7.8-.9s-4.9-1-13.8-1.3c-11.6-.4-15.5-.8-16.6-2-2.6-2.6.7-4,10.9-4.5,11.3-.6,12.3-.8,10.7-2.7-.6-.8-3.6-1.8-6.6-2.2s-5.7-1-6-1.5.5-2.2,1.7-3.8c4.4-5.9,2.5-6.5-24.6-7.7-15.3-.6-19.5-1.7-19.5-4.9,0-1.3,2.5-1.5,15.5-1.5,8.5,0,15.5-.4,15.5-.9,0-1.5-4.8-2.1-19.9-2.8-13.9-.6-14.6-.7-17-3.2l-2.6-2.6,11.8-.6c10.7-.5,15.4-1.7,12.9-3.3-.5-.3-5.4-.8-10.8-1.1-15.9-.9-18.3-1.4-19.5-3.7-1.7-3.1.3-3.8,10.5-3.8,4.9,0,8.7-.2,8.4-.5s-4-1-8.4-1.6c-9.6-1.3-17.4-4.4-17.4-6.9,0-2.2,1.9-3,7-3a8.89,8.89,0,0,0,5.6-1.7c1.6-1.7,1.5-1.8-3.2-3.1-12-3.2-15.9-4.7-16.2-6.5-.3-1.4.4-1.7,4.2-1.7,2.5,0,4.6-.4,4.6-.8,0-1.2-2.7-3.3-7-5.6-4.7-2.5-12.8-10.4-14.5-14.1a40.87,40.87,0,0,0-5.2-7.4l-3.9-4.3-11.4,5.7c-12.8,6.4-13,7.2-2.7,9.5,11,2.4,13.2,3.7,16.2,9.3,6.3,11.6,13.5,23.4,15.5,25.2a28.91,28.91,0,0,1,4.5,6.5,28.91,28.91,0,0,0,4.5,6.5,24.42,24.42,0,0,1,4,5.5c1,1.9,5.6,8.3,10.1,14.2s10.9,14.2,13.9,18.3,8.2,10.7,11.7,14.7,6.3,7.5,6.3,8,2.5,3.5,5.5,6.8c5.9,6.4,6.7,9.3,4.5,15.7-1.8,5.1-4.6,5.8-21.9,5.8-12.9,0-16-.3-17.9-1.6q-2.25-1.65-1.2-2.4c.6-.4,7.9-1,16.3-1.4s16.1-1.3,17.2-1.9c1.6-.9-2.4-1.1-18.1-1.2h-20l-3.3-3.4c-1.8-1.9-2.9-3.6-2.4-3.9s7.6-.8,15.8-1.2l15-.8-4.5-2c-3.6-1.6-6.8-2-17-2.1-12.6-.1-17.8-1.3-18.8-4.4-.3-.9,1.8-1.2,8-1.3a102,102,0,0,0,12.8-.8l4.5-.8-2.8-1.1c-1.6-.7-7.7-1.2-13.6-1.2-12.3,0-16.2-1-18.2-4.6s-.2-4.4,10.8-4.4c5,0,9.4-.4,9.7-.8.5-.9-14.5-3.2-20.5-3.2-3.5,0-7.9-2.3-7.9-4.1,0-.5,3.6-.9,7.9-.9s8.3-.5,8.6-1,.5-1,.3-1c-16.5-1.5-19.2-2-21.4-4.1-1.3-1.2-2.4-2.8-2.4-3.5,0-2,3.4-3.4,7.9-3.4,2.3,0,4.1-.4,4.1-.8,0-.9-5-2.8-10-3.7-7.3-1.3-9.2-2.6-11.6-8.2A32.68,32.68,0,0,1,673,301a10.32,10.32,0,0,0-2.2-4.1c-3.4-4.3-3.2-7.3.8-13.2,2-2.9,3.4-5.8,3.2-6.4-.9-2.6-42-17.9-48-17.9-5.4,0-2.2,5.6,7.8,13.4,8.8,6.9,10.5,9.3,12.5,17,.9,3.7,2.9,6.6,9.6,13.9,4.7,5.1,9.1,10.5,9.8,12.2a22.59,22.59,0,0,0,4.4,5.9c1.7,1.7,3.1,3.5,3.1,4.2s1,2.5,2.3,4.1a24.52,24.52,0,0,1,3.6,6,16,16,0,0,0,3.2,4.9,6,6,0,0,1,1.9,2.7c0,1.5,6.3,8.7,18.7,21.3,15,15.5,14,13.8,11.3,17.7s-11.6,9.7-15,9.7c-5.7,0-20-4.3-20-6,0-.4,5.1-1.1,11.2-1.5l11.3-.7-3.9-2c-2.9-1.5-7-2.2-15.5-2.8-6.8-.4-12.7-1.3-14.1-2.1-2.3-1.3-1.6-1.4,8.5-1.9,6.1-.3,11.6-.9,12.4-1.4,2.4-1.5-6.2-3.6-19.1-4.5-18.9-1.5-20.9-4.4-4.2-6.3l9.9-1.2-5.5-.8c-23.8-3.7-30-5.7-30-9.9,0-2,3.5-2.7,15-3.2,6.2-.2,6.4-.3,3.6-1.5-1.6-.7-8-1.9-14.3-2.6-12-1.4-14.5-2.4-12.4-5,.9-1.1,3.7-1.6,9.9-1.8l8.7-.3-4-1.9a37.06,37.06,0,0,0-11-2.3c-7.2-.5-11.5-2.3-11.5-4.7,0-1.7,2.2-2.6,6.3-2.6,6.5,0,6-1.7-.9-3.4-11.2-2.8-15.2-6-10.7-8.5,2.2-1.2,1.9-1.5-3.7-3.3l-4.5-1.5-.5-7.4-.5-7.4-8.5-2.2c-8.3-2.1-20-3.1-20-1.6,0,.8,11,14.1,21,25.3a71.41,71.41,0,0,1,8.3,11.5c1.4,2.8,5.9,9.1,9.9,14.1s8.7,11.2,10.4,13.6,8.3,9.1,14.5,14.7,11.5,10.6,11.7,11c.5,1.4-10.3,8.1-14.1,8.8-3,.4-5.6-.3-13.8-3.8l-10.1-4.4,9.4-.5c10-.5,9.6-1.2-2.2-3.1-9-1.4-14.2-3.2-17.7-5.9l-2.6-2,6.9-.1c10.9-.1,12.2-1.3,3.7-3.3a72.69,72.69,0,0,0-9.1-1.6c-2.8,0-8.2-2-8.2-3.1,0-.5,2.4-.9,5.4-.9,10.5,0,11.8-2.4,1.8-3.3-6.7-.7-15.6-3.1-17.9-5a3.91,3.91,0,0,1-1.3-2.8c0-1.7.8-1.9,6.3-1.9,13.2,0,10.2-3.6-4.2-4.9-6.8-.6-9.6-1.3-12.1-3.1-3.1-2.2-3.2-2.4-1.3-3.1a46.27,46.27,0,0,1,9.2-1c3.9-.2,7.1-.6,7.1-.9s-2-1.1-4.4-1.8c-6.6-1.7-9.9-5-12-12.2a24,24,0,0,0-6.7-11.1c-2.6-2.7-5.5-4.9-6.3-4.9-3.5,0-3.5-3.4,0-10.5,2.8-5.7,3.4-8,3.4-13.6,0-8.9-2-14.3-7.2-18.9-4.8-4.3-8.5-6.2-17-8.5-3.5-1-5.9-2.3-6.2-3.3s-1.2-4.9-2.2-8.7c-3-12.6-6.3-16.6-16.5-20.2-11.1-3.8-21.7-3.6-37.4,1-14.8,4.3-23.1,6-24.5,5.2-.5-.3-1.5-2.6-2.1-5.1-1.4-5.3-5.4-9.1-14.4-13.4-10.4-5-17.6-6.3-29.5-5.5-5.7.4-11.2,1.1-12.1,1.6s-2.7,2.9-3.9,5.5-2.9,4.8-3.6,5.1c-2.7,1-26.8-5.9-35.5-10.3-10.1-5-22.9-8.6-31.4-8.8-5.7-.1-6.4.2-10.4,3.6a65,65,0,0,1-10.8,7c-6.3,3.2-6.4,3.4-5.8,6.6.5,2.9.2,3.8-3.2,6.9-7.2,6.7-15.3,13.2-19.6,15.7s-13.5,5.1-14.5,4.2c-.3-.3,3.3-4.4,7.9-9.1,8-8.2,10.5-11.3,9.7-12-.1-.2-5.5,3.5-11.8,8.1-24.4,17.8-27.5,19.6-32.9,20.2-5.8.5-6.6-.7-2.5-3.5,1.4-1,4.5-3.4,6.8-5.4a26.76,26.76,0,0,1,6.1-4.3c2.6-.7,11.4-9.6,9.7-9.6-1.9,0-8.7,3.6-10.2,5.5-.7.9-3.7,2.7-6.6,4.1a52.65,52.65,0,0,0-10.1,6.8c-6.9,6.1-14.2,9.6-20,9.6h-4.8l5-4.5c2.8-2.5,8-6.8,11.7-9.6,6.1-4.6,8.9-8.2,7.5-9.6-.8-.7-4.7,1.5-8.5,4.8-1.8,1.6-3.7,2.9-4.2,2.9s-5,3.6-10.1,8-11.1,8.9-13.5,10.1c-4.3,2-10.5,2.3-11,.4-.3-1,5.6-6,11.5-9.8,3.4-2.2,7.9-8.3,6.8-9.3-1.3-1.4-5.4,1.4-13.9,9.3-10,9.3-15.1,12.3-21.3,12.3-7.2,0-6.9-1.1,2.6-8.8,5.7-4.7,8.9-8,8.9-9.3,0-1-.2-1.9-.5-1.9s-6,4.2-12.5,9.2-13.9,10.3-16.2,11.5c-3.9,2.1-10.8,3.1-10.8,1.6,0-.3,4.3-4.7,9.5-9.6s9.4-9.2,9.1-9.4c-1.3-1.4-6.3,1.3-11.7,6.3-7.1,6.5-15.8,12.2-19.8,13-3.8.8-5.2-1.4-2.2-3.5,3.9-2.8,15.1-14,15.1-15,0-2.6-3.9-.2-13.6,8.5-4.5,4-10,8.2-12.3,9.3-3.9,2-11.2,2.9-11,1.3,0-.4,3.2-3.4,7-6.7,8.5-7.2,10.1-9.5,6.6-9.5-2.7,0-5.5,1.9-13.8,9.5-7.2,6.5-11.4,8.5-18.1,8.5H71.5l6.7-6.1c3.9-3.5,6.8-6.9,6.8-8,0-3.8-3.6-2-13.4,6.4-3.8,3.3-8.4,6.6-10.2,7.3-4.1,1.7-14.4,3-14.4,1.8,0-.6,2.5-3.4,5.5-6.4s5.5-5.8,5.5-6.2-1.3-.8-2.9-.8c-2,0-5.5,1.9-11.2,6.1-4.5,3.4-9.7,6.8-11.5,7.5-3.6,1.5-9.4,1.9-9.3.6,0-.4,4.3-4.2,9.5-8.5s9.4-8.1,9.2-8.3c-1.1-1-8.4,2.2-15.1,6.5-8.1,5.3-8.5,6.1-10.3,19.6-.4,2.7-1.1,5.6-1.6,6.2a2.84,2.84,0,0,0-.4,2.8c.7,1.8,16.7,2,43.6.5,26-1.5,73-7.7,95.5-12.5,6-1.3,18.9-3.3,28.5-4.5s19.5-2.5,22-3.1,9.5-2.2,15.5-3.4,13.5-3,16.5-3.9a166.12,166.12,0,0,1,26-5.1c3.6-.4,10.6-1.5,15.5-2.5,12.1-2.5,47.5-7.7,60.5-8.9,9.8-.9,39.5-.6,46.7.5,2.7.4,3.4,1.1,4.7,5a26.45,26.45,0,0,0,10.1,13.1c2.9,2,3.4,3.2,6.2,14.6s3.5,13.2,8.8,20.6c6.3,8.7,8.5,10.1,16.4,10.1,2.5,0,5.1.4,5.6.8s1,6.9,1,15.7c0,12.3.3,15.6,1.7,18.1,2.2,4.1,15.4,16.3,18.4,17,2.5.6,8.5,8.7,12.2,16.5,2.8,5.7,8.5,10.4,17.4,14.1,14.1,6,21,5.5,32.5-2.2l7.3-4.8,6.2,2c9.4,3,19,2.8,25.4-.5,2.8-1.4,5.4-3.3,5.7-4.2.8-2,3.3-1.9,12,.5,3.9,1.1,11.7,2.8,17.2,3.9a89.21,89.21,0,0,1,15.5,4.3,53.41,53.41,0,0,0,8,3.1,27.34,27.34,0,0,1,7,4.1c4.5,3.4,17.8,7.6,24.1,7.6,1.6,0,5.7-2,10-4.9l7.3-5,2.8,2.4a20.69,20.69,0,0,0,7.1,3.6c2.3.6,6,1.7,8.2,2.5,5.5,1.9,20.7,1.8,24.4-.1a27.07,27.07,0,0,0,6.3-5.5c4.5-5.4,9.7-6.5,13.2-2.7,3.3,3.6,9.6,5,19.3,4.4s20-4.7,23-9.4a48,48,0,0,1,4.9-6c2.7-2.8,3.8-3.3,8-3.3a202.85,202.85,0,0,0,28.1-3c6.2-1.4,15.3-9,17.6-14.8l1.5-3.8,16.4-1.2c13.9-1,18.8-1.8,33.2-5.7,9.2-2.5,21.8-6.3,28-8.6,19.2-7,17.9-6.9,43.3-5.8,35.9,1.5,52.8,4.2,79.1,12.9,8.4,2.7,22.1,6.4,30.5,8.1s19,4.1,23.7,5.4c23.7,6.7,51.6,8.9,100,8,19-.4,37.2-1.1,40.5-1.7s8.6-1.2,11.7-1.5l5.8-.5,1.1-4.2c.5-2.2,1.3-5,1.6-6.1s3.5-5.1,7.2-8.9c5.1-5.3,6-6.6,4.1-6.1-4.1,1.2-9.8,4.4-14.8,8.2-6.6,5.1-14,8.3-18.9,8.3-6.3,0-5.5-2,3.5-8.8s13.9-11.9,12.8-12.9c-1.2-1.3-10.8,4.5-18.1,10.9-9.1,8-15.1,10.8-23.2,10.8-3.5,0-6.3-.4-6.3-.9,0-2.1,4.6-6.3,10-9.2,6.1-3.2,10.8-7.4,9.7-8.6-1-.9-10.3,3.6-12.8,6.4-1.3,1.2-3,2.3-3.9,2.3s-2.9,1.4-4.6,3.1c-3.2,3.4-12.1,8.3-17.2,9.4a26.7,26.7,0,0,1-8,0l-4.5-.7,3.6-2.1c8.7-5.2,20.6-13.3,20.7-14,0-.4-.8-.7-1.8-.7-1.6,0-4.7,1.9-15.4,9.6-7.3,5.2-14.4,7.6-24.1,8.2-7.7.4-8.7.3-8.1-1.1a4,4,0,0,1,2.4-2.2,24.62,24.62,0,0,0,5.5-3.5,39,39,0,0,1,9.1-4.7c3-.9,6.4-2.7,7.6-4l2.1-2.3h-2.2c-2.7,0-8.2,2.2-10.1,4.1-.8.8-5.3,3.4-10,5.8-6.9,3.6-9.8,4.5-15.5,4.9l-7,.5,5-4.6c2.8-2.5,5.8-4.6,6.8-4.7s1.7-.5,1.7-1c0-1.5-.4-1.4-10.6,3-5.7,2.4-10.9,4-13.1,3.9-5.8,0-11.6-1.3-12-2.5-.2-.6,6-4.1,13.7-7.9s13.5-7.2,12.9-7.6c-1.8-1.1-7.5.8-19.1,6.3s-19.8,7-25.3,4.8l-3-1.2,2.7-2.1c1.5-1.2,7.2-3.9,12.8-6s10-4.3,10-4.8c0-1.8-4.7-.8-11.7,2.6-9.1,4.4-17.1,6.5-24.3,6.4h-5.5l14-7.1c7.7-3.9,13.4-7.3,12.7-7.6s-7.2,1.9-14.3,4.8-14.5,5.4-16.4,5.7c-3.7.6-10.5-.4-10.5-1.5,0-.4,5.9-3.7,13.1-7.2,7.3-3.7,12.3-6.7,11.3-6.9s-5.6,1.5-10.3,3.8c-11.6,5.5-20.2,7.6-27.1,6.5l-5.3-.9,5.9-3.7a69.42,69.42,0,0,1,13.7-6.4c4.6-1.5,7.6-3.1,7.4-3.7q-1-3.3-19.2,4.8c-13.1,5.8-17.5,7-21.8,5.7-2.8-.7-2.4-1,7.5-6.5,5.6-3.1,9.9-5.7,9.4-5.7s-6.7,1.8-13.7,4c-13.6,4.1-22.9,5.9-22.9,4.3,0-.5,3-2,6.8-3.3,12.6-4.3,9.9-5.4-4.8-1.9-4.9,1.1-10.8,1.9-13.2,1.7l-4.3-.3,3.9-2.4c3.8-2.4,3.8-2.4,1.8-4a20,20,0,0,1-4-6.1,22.14,22.14,0,0,0-4.3-6.7c-3.1-2.8-10.1-5.3-14.9-5.3a29.58,29.58,0,0,1-8-1.5c-5.7-2-6-1.9-6,1.1v2.7l-8.2-.6-8.3-.7,3.3,2.6c2.6,2.1,3,2.9,2.1,4-1.4,1.7-5.9,1.8-11.3.3a14.8,14.8,0,0,0-6.5-.4l-2.6.7,3.7,1.9c4.7,2.4,5.6,3.9,3.4,5.5-1.5,1-2.6,1-6.4-.2-2.6-.9-5.5-1.8-6.4-2.1-3.1-.9-1.9,1.4,1.7,3.6,4.2,2.4,4.3,3.5.9,5.7-2.3,1.6-2.9,1.6-8.4,0a46.51,46.51,0,0,0-8.2-1.6c-2.1.1-2,.2.7,1.6,6.8,3.6,7.7,4.4,6.4,6-1.5,1.8-7.1,1.8-13.3-.1-8.2-2.5-9.7-1.8-3.3,1.7,3.1,1.7,5.7,3.5,5.7,3.9,0,1.2-8.3,1.1-13.4-.2a26.29,26.29,0,0,0-7.7-.7c-3.3.3-3.2.4,2.9,2.6,3.4,1.3,6,2.7,5.7,3.3-1.1,1.6-6.3,1-15.5-2-4.9-1.6-9-2.8-9-2.6s2.9,1.9,6.5,4,6.2,4.2,5.9,4.6c-.9,1.6-7.5.9-15.8-1.5-10.5-3.1-14.4-3.8-15.1-2.6-1.6,2.6-12.2-1.3-19.6-7.1-6.3-4.9-18.9-19.7-18.9-22.1,0-1.1-1.4-4.4-3.1-7.2-3.1-5-6.9-14.5-6.9-17.3,0-1.2,4.2,3,14.8,14.7,3.1,3.3,3,3-1.9-7.3-2.8-6-4.9-11.1-4.6-11.4,1.2-1.2,4.8,1.1,6.4,4,3.3,6.5,22.2,25.1,23.8,23.5.2-.2-4.5-6.1-10.5-13-8.4-9.8-10.6-12.9-9.6-13.7s3.5.8,10.2,6.5c9.4,8.1,13.2,10.9,13.8,10.3.2-.2-2.9-4.4-7-9.2s-7.4-9.3-7.4-9.8c0-1.8,3.6-.8,9,2.6,5.9,3.8,11.5,5.1,7.4,1.7-3.5-2.8-5.4-6.5-4.4-8.2.8-1.3,1.3-1.3,4.1.2,6.4,3.7,10.2,1.3,4.2-2.6-3-1.9-5.7-2.5-12.7-3.1-4.9-.3-10.8-1.2-13-2s-8.4-2.6-13.6-4-11.4-3.7-13.7-5.1c-8-4.6-17.1-13.3-20.9-19.7a66.47,66.47,0,0,0-5.9-8.7c-1.2-1.4-4.6-7.8-7.4-14.3-8.9-20.7-12-36.8-12.7-66.7-.3-11.3-.7-21.5-.9-22.6a4.07,4.07,0,0,0-3-2.8c-1.4-.4-5.3-3.1-8.6-6.2-9.6-8.8-11.9-4.9-2.4,4.3,5.7,5.5,7.4,9.7,5.5,13.4-1.2,2.1-1.8,1.5-14.4-11-7.2-7.2-13.4-13.1-13.8-13.1s0,2,.8,4.4c1.1,3.3,3.7,6.5,9.5,12,7.9,7.6,9.6,10.6,6,10.6s-4.8-1.1-15.7-13.1c-6-6.6-11-11.6-11.2-11-.5,1.4,3.3,8.3,5.8,10.6,2.2,1.9,5,7.3,5,9.5,0,3.3-4.5-.3-12.5-10.1-4.9-6.1-9.8-11.7-10.8-12.6-1.6-1.6-1.7-1.4-.3,2.5.8,2.2,2,5.1,2.6,6.3.8,1.3.8,2.5.2,3.1s-3.1-1.1-7-4.6c-3.3-3.1-6.2-5.6-6.5-5.6s-.4,3.3-.3,7.2l.1,7.3-10.5,5.3a177.89,177.89,0,0,1-20,8.3c-8.6,2.8-10.4,3-20,2.7-13.2-.4-17.5-2.3-20.7-8.8a19,19,0,0,1-2.3-6.9c0-3.7,11.8-14.3,20.8-18.7,7.2-3.5,10.2-3.8,10.2-1.1,0,2.1-10,10.3-16.7,13.9A41.78,41.78,0,0,0,595,119c-1.2,1.2-1.1,1.4,1,1.4,5-.1,27-16.6,27-20.3,0-2.6,7-10.1,12.6-13.4,9.8-5.9,18.4-13.5,23.1-20.6s6.7-8.6,15.6-11.2c4.9-1.4,7.2-1.5,16.8-.5a213.2,213.2,0,0,1,22.2,3.5c6.2,1.3,14.8,2.9,19.2,3.5a94.88,94.88,0,0,1,14,3c7.5,2.2,19,5.1,23.2,5.7,2.9.5,3.4,1,4.3,4.7,3.3,12.6,6.1,16.9,16.8,26.2a53.82,53.82,0,0,0,14,8.9c12.9,5.1,20.3,10.1,42.1,28.3,16.9,14.2,21.1,18.2,23.2,22.4,1.1,2.1,2.6,3.8,3.5,3.8a19.4,19.4,0,0,1,5.4,2,19,19,0,0,0,6.7,2h2.7l-4.2-4.3c-2.3-2.3-4.2-5.1-4.2-6,0-3.5,3-2.9,9.1,1.7,3.7,2.8,7.1,4.6,8.8,4.6,2.5,0,2.4-.3-3.1-6.1-3.2-3.3-5.8-6.5-5.8-7,0-2.8,10,1.7,20.3,9.3,3.7,2.8,7,4.8,7.4,4.5s-1.8-3-4.6-6-5.1-5.7-5.1-6c0-1.4,6.6-.6,10.7,1.2a62.33,62.33,0,0,1,9.3,6c7.4,5.9,10.4,5.5,4-.5-2.8-2.6-5-5-5-5.4s1.1-1.1,2.5-1.4c3.4-.9,10.7,2.4,14.3,6.3A12.59,12.59,0,0,0,949,163l3.5.7-2.8-3c-3-3.3-2.8-6.3.5-6.3,2.6,0,5.6,1.7,10.1,5.6,5.1,4.7,8.8,4.5,5.2-.2A7,7,0,0,1,964,157c0-1.2,5.8.1,10.8,2.6,3.5,1.6,4.6,1.8,5.2.8.8-1.4,2.2-1.3,20.2,1,5.7.8,25.3,1,57,.8,45-.3,48.5-.5,51.7-2.2,2.7-1.5,6.8-2.1,19-2.7,8.6-.5,28-1.6,43.1-2.5,31.1-1.9,75.2-2.2,91.3-.5,9.5.9,11.1.9,14.2-.7,1.9-.9,3.5-2,3.5-2.3s-7.5-1.5-16.7-2.7c-50.1-6.4-92.7-6.8-204.1-2.1-27.9,1.1-47.2,1-116-1.1-46.5-1.5-67-4.2-77.6-10.4-2.5-1.4-12.7-9.9-22.8-18.7-45-39.5-69.3-55.9-83-55.9a61.5,61.5,0,0,1-10.7-2c-20.8-5.4-33.6-8.1-42.7-9-11.5-1.1-29.4.1-36.4,2.4a79.23,79.23,0,0,1-8.4,2.1c-2.9.5-5.6,2.2-11.2,7.6-6.5,6.2-7.7,6.9-11.3,6.9a9.78,9.78,0,0,1-6.8-2.4c-3.2-2.7-10.2-6.6-11.9-6.6a98,98,0,0,1-10.8-3c-10.1-3.1-45.7-11-58.6-13-4.1-.6-12.7-2.5-19-4s-14.2-3.4-17.5-4a109.81,109.81,0,0,1-13-3.1C490.4,29.09,469.1,28.89,447,31.89Zm-30.2,178c3.7,1.1,6.8,3.1,11.2,7.3,5.5,5.2,6,6.1,6,9.9,0,3.3-.5,4.6-2.6,6.2-3.7,2.9-5.5,2.6-9.1-1.2-4.9-5-17.2-22-16.7-22.9C406.4,207.89,411.1,208.29,416.8,209.89Zm-72.2,5c.7,1.9-1,4.7-6.5,10.2-4.8,5-8.5,6.1-5.3,1.5a19.17,19.17,0,0,0,2.7-6.2,13.68,13.68,0,0,1,2.3-5.3C339.7,213,343.9,212.89,344.6,214.89Zm12.4,2.9c0,2.2-8.9,10.6-11.2,10.6-2,0-2-.1-.3-2.8,4.5-6.9,6.7-9.2,9.1-9.2C356,216.39,357,217,357,217.79Zm11.9,2.5c2.8,1.8-2.2,7.1-6.8,7.1-3,0-2.6-2.4,1-5.4C366.5,219.09,366.9,219,368.9,220.29Zm44,9.1c5.1,5.5,8.1,9.6,7.7,10.5s-2.3,2.3-4.5,3.4l-3.9,2-3.6-3.9c-4.6-5.1-6.6-9.1-6.6-13.2s1-7.8,1.9-7.8C404.3,220.39,408.4,224.49,412.9,229.39ZM382.7,224c.7,2-2.7,4.4-6.3,4.4h-3.5l2.3-3c1.6-2.2,2.9-3,4.7-2.8C381.2,222.79,382.5,223.39,382.7,224Zm99.8,5.2c-7.7,3.8-14.8,7.7-15.8,8.6-2.3,2.3-2.2,6.9.2,9a25.35,25.35,0,0,1,4.1,6.3c3.2,6.8,6.1,9.3,11,9.3h4.2l-3.1-2.5a30.73,30.73,0,0,1-5.7-8.1c-3.9-8-2.9-9.6,9.9-16.1,12.4-6.3,14.1-6.8,17.8-5.3,2.2,1,4,3.5,7.9,11.2l5,9.9-5,5.3c-3.6,3.8-8,6.9-15.9,10.9-6,3.2-11.9,5.7-13.1,5.7s-3.8-1.1-5.6-2.5c-5.5-4.2-6.2-3.4-3.9,4.2,1.1,3.5-1.1,2.8-5.6-1.7-7.2-7.3-12.1-4.3-5.9,3.5,1.7,2.1,3,4.1,3,4.5,0,1.9-5.2-.7-10.4-5.1-3.2-2.7-6.2-4.9-6.7-4.9-2.6,0-1.8,3.5,2,8.5,7.8,10.4,4.5,11.4-6.4,2-4.1-3.6-7.9-6.5-8.4-6.5-2.4,0-1.7,2.1,2.9,9,2.7,4.1,4.7,7.6,4.5,7.8-1.3,1.3-6.1-1.5-12.5-7.3-4-3.6-7.5-6.4-7.7-6.2s.6,2.6,1.7,5.2c3.2,7.5,2.3,8.8-2.8,4-3.6-3.4-4.9-5.7-8.2-15-2.2-6.1-4-12.5-4-14.3,0-3.3,2.9-7.2,5.3-7.2,2.8,0,19.8-7.3,23.3-10,2-1.7,4.3-3,5.1-3s6.7-2.5,13.2-5.5c14.3-6.6,26.7-10.4,34.1-10.4l5.5-.1ZM303,224.49c0,2.6-7.7,8.7-12.9,10.3-3,.9-5.6,1.5-5.8,1.3s3.2-3.1,7.4-6.5C298.8,223.79,303,221.89,303,224.49Zm209.8,1.4c3.2,2.7,7.6,10.7,7,12.6-.3.9-11.8-13.3-11.8-14.6S510.1,223.59,512.8,225.89Zm-114.4,7.6c1.4,1.7,2.6,4.1,2.6,5.4a4.83,4.83,0,0,0,1.4,3.4c1.7,1.4,3.9,7.1,2.7,7.1-1,0-6.7-6.1-8-8.8a44.78,44.78,0,0,1-2.6-6.3c-1.2-3.3-1.2-3.9,0-3.9C395.2,230.39,397,231.79,398.4,233.49Zm119,35.5c-13.9,6.8-16.8,9.3-16.1,13.9.3,1.8,2.4,6,4.6,9.3a57.85,57.85,0,0,1,5.3,9.3,17.21,17.21,0,0,0,2.6,5.1c1.4,1.6,1.3,1.8-.2,1.8-1,0-4.2-2-7.3-4.5-5.1-4.2-7.3-4.9-7.3-2.4,0,.6,1.4,3.1,3.1,5.5,3.5,5.2,3.4,8.2-.3,6.3a52,52,0,0,1-6.4-4.6c-6.7-5.4-8.8-3.7-3.5,2.8,2.9,3.5,4.3,6.7,2.9,6.8-2.7.3-4-.4-9.6-4.9-3.4-2.8-6.2-4.6-6.2-4s1.4,3.7,3,7c3.6,7.2,3.7,8,.6,8-1.8,0-3.7-1.6-7.1-5.9-4.9-6.2-7.2-7.8-8.8-6.2s1.2,7.8,4.4,10.4c2.1,1.6,2.8,2.8,2.3,4-1.3,3.5-4.9,1.8-12.4-5.8-4.1-4.1-7.5-7.3-7.7-7.1s1.9,5,4.7,10.6,5,10.9,5,11.7a1.13,1.13,0,0,1-2.2.5c-.6-1.4-9.8-9.2-10.8-9.2-1.8,0-1.1,1.9,3,8.7,2.2,3.7,4,7.5,4,8.5,0,3-8.5-3.9-10.7-8.7-2.7-5.9-2.7-30.3.1-33.3,1-1.2,12.9-7.7,26.6-14.6s25.3-13.2,25.9-14,3.6-2.3,6.4-3.2,7.9-3,11.2-4.6,7.4-2.8,9-2.7C527.9,263.49,526.3,264.59,517.4,269Zm27.5-.7a63.53,63.53,0,0,1,7.6,10.5l3.7,6.6-2.7,3.6c-1.5,1.9-3.9,4.1-5.4,4.7a65.4,65.4,0,0,0-7.5,4.4c-6.6,4.5-9.5,4.3-12.2-.8-1.1-2.2-2.2-2.9-4.4-2.9-3.6,0-3.6,0-.9,5.2,2.5,4.9,1.5,6.8-2.6,5-1.5-.7-2.3-1.7-2-2.2.5-.8-5.3-13.7-10.3-23.2-.2-.3.5-.9,1.5-1.2s7-3.5,13.3-7.1C537,263,539.3,262.69,544.9,268.29Zm9.4-.5c1.5,2,2.7,4.7,2.7,6.3,0,2.5-.4,2.2-3.5-3a59.74,59.74,0,0,1-3.5-6.3C550,263.49,551.8,264.79,554.3,267.79Zm-6.3,43.7c5.7,3.4,9,7,9,9.8,0,3.7-14,17.9-21,21.4-3,1.5-6.2,2.7-7.3,2.7-1.8,0-15.7-11.5-15.7-13.1,0-.4,5.1-4.4,11.3-9s12.7-9.5,14.5-11.1C542.7,308.79,543.5,308.79,548,311.49Zm417.4,3.8c.8,1.2-13.9,3.5-16.1,2.6-1.3-.6-.4-1,3.5-1.6,2.9-.4,5.6-1,5.9-1.3C959.6,314.09,964.8,314.29,965.4,315.29Zm-451.8,10c-4.8,4.8-5.7,6.4-5.3,8.3.4,1.2,4.7,6.7,9.6,12,9.4,10.1,11.6,13.2,10.6,14.8-1.2,1.9-3.3,1-13.1-5.5-9.3-6.1-12.4-7.5-12.4-5.8,0,.5,2.3,2.8,5.1,5.2a79.64,79.64,0,0,1,9,9.4c3.6,4.5,3.8,5.2,2.5,6.5-2.2,2.2-4.1,1-15.1-9.1-6-5.6-10.1-8.7-11-8.3s-1.2,1.2-.8,2.3c1.2,3.4,8.4,11.8,12.9,15.1,2.6,1.9,4.4,4,4.4,5.2,0,3.6-3.5,2.2-12.3-5-7.4-6.1-13.7-10-13.7-8.5,0,.3,3.4,4.5,7.5,9.3,7.1,8.2,7.4,8.7,5.1,9-3.5.4-8.1-2.2-13.8-7.9-8.1-8.1-10.6-16.3-7.2-23.4,2-4.3,11.8-13.7,16.9-16.2,7-3.5,13.9-7.6,16-9.3a20.27,20.27,0,0,1,9.5-3.9C518.8,319.39,516.8,322.09,513.6,325.29Zm252.7.1c.5.4-2.6,1-6.7,1.4-5.9.5-8.2.3-10.6-.9a10.62,10.62,0,0,1-3-1.9C746,323.29,765.5,324.59,766.3,325.39Zm-203.9,3.8c-1.8,4.5-2.9,5.6-4.3,4.8-1.2-.8-.5-3,2.1-6.9S564.3,324.69,562.4,329.19Zm-25.1,22.7c.1.5-1,1.1-2.5,1.3s-2.8-.1-2.8-.7C532,350.49,536.9,349.89,537.3,351.89Zm20.6,11.9c1.6,1.9.4,5.9-2.6,8.8-2.1,2-3.5,2.3-9.6,2.3-7.6-.1-13.7-2.3-13.7-4.9,0-.8,2.1-2.8,4.7-4.5,4.2-2.8,5.4-3.1,12.3-3.1C554.4,362.39,557.1,362.79,557.9,363.79Z"/><path class="cls-1" d="M394.75,408.76v181H382.63v-181Z"/><path class="cls-1" d="M462.44,424.14a153.34,153.34,0,0,1,28.78-2.53c15.75,0,25.89,2.72,33.49,8.87,6.33,4.7,10.13,11.94,10.13,21.54,0,11.76-7.78,22.08-20.63,26.79v.36c11.58,2.89,25.16,12.49,25.16,30.59a32.86,32.86,0,0,1-10.32,24.43c-8.51,7.78-22.26,11.4-42.17,11.4a185.2,185.2,0,0,1-24.44-1.44Zm15.75,50h14.3c16.65,0,26.43-8.69,26.43-20.45,0-14.3-10.86-19.91-26.79-19.91a68,68,0,0,0-13.94,1.08Zm0,58.46a83.15,83.15,0,0,0,13.21.73c16.29,0,31.32-6,31.32-23.71,0-16.66-14.3-23.53-31.5-23.53h-13Z"/><path class="cls-1" d="M560.54,424.14c8-1.63,19.37-2.53,30.23-2.53,16.83,0,27.69,3.08,35.3,9.95,6.15,5.44,9.59,13.76,9.59,23.17,0,16.11-10.14,26.79-23,31.14v.54c9.41,3.26,15,11.94,17.92,24.61,4,17,6.88,28.78,9.41,33.49H623.71c-2-3.44-4.7-13.94-8.14-29.14-3.62-16.83-10.14-23.17-24.44-23.71H576.29v52.85H560.54Zm15.75,55.57H592.4c16.83,0,27.51-9.23,27.51-23.17,0-15.74-11.4-22.62-28-22.8-7.6,0-13,.72-15.57,1.44Z"/><path class="cls-1" d="M682.72,435.91H645.61v-13.4h90.32v13.4H698.64v108.6H682.72Z"/><path class="cls-1" d="M749.5,424.14c8-1.63,19.37-2.53,30.23-2.53,16.83,0,27.69,3.08,35.3,9.95,6.15,5.44,9.59,13.76,9.59,23.17,0,16.11-10.14,26.79-23,31.14v.54c9.41,3.26,15,11.94,17.92,24.61,4,17,6.88,28.78,9.41,33.49H812.67c-2-3.44-4.7-13.94-8.14-29.14-3.62-16.83-10.14-23.17-24.44-23.71H765.25v52.85H749.5Zm15.75,55.57h16.11c16.83,0,27.51-9.23,27.51-23.17,0-15.74-11.4-22.62-28-22.8-7.61,0-13,.72-15.57,1.44Z"/><path class="cls-1" d="M899.19,408.76v181H887.06v-181Z"/></svg>